# xmcd
#
# Track frame offsets: 
#        150
#        21482
#        38095
#        61447
#        79270
#        98522
#        120990
#        136005
#        151615
#        171602
#
# Disc length: 2618 seconds
#
# Revision: 2
# Processed by: cddbd v1.5.2PL0 Copyright (c) Steve Scherf et al.
# Submitted via: ExactAudioCopyFreeDBPlugin 1.0
#
DISCID=750a380a
DTITLE=Dalton Reed - Willing and Able
DYEAR=1993
DGENRE=Soul
TTITLE0=The One Thing
TTITLE1=Willing and Able
TTITLE2=They Say
TTITLE3=Ophelia
TTITLE4=Hold on My Heart
TTITLE5=Never Never Land
TTITLE6=I Guess You Didn't Love Me Enough
TTITLE7=Back on Trak
TTITLE8=The More You Got
TTITLE9=When Loves Come Down
EXTD=Bullseye Blues Records\nNet CD 9547, marketed by Munich Records\n
EXTD=Produced by Scott Billington\nA Bee's Knee Production\nRecorded a
EXTD=t Ultrasonic Studios, New Orleans\nLouisiana, November 1993
EXTT0=
EXTT1=
EXTT2=
EXTT3=
EXTT4=
EXTT5=
EXTT6=
EXTT7=
EXTT8=
EXTT9=
PLAYORDER=
